PathFileType	4	(X/Y/Z)	AB09\squats_1.trc
DataRate	CameraRate	NumFrames	NumMarkers	Units	OrigDataRate	OrigDataStartFrame	OrigNumFrames
200.000000	200.000000	4	35	mm	200.000000	41	332
Frame#	Time	C7			LSHO			STRN			LASI			RASI			LPSI			RPSI			LGTR			RGTR			LTHC			LTHL			LTHR			LKNE			LMKNE			LSHC			LSHL			LSHR			LANK			LMANK			LMT1			LMT5			LCAL			RTHC			RTHL			RTHR			RKNE			RMKNE			RSHC			RSHL			RSHR			RANK			RMANK			RMT1			RMT5			RCAL			
		X1	Y1	Z1	X2	Y2	Z2	X3	Y3	Z3	X4	Y4	Z4	X5	Y5	Z5	X6	Y6	Z6	X7	Y7	Z7	X8	Y8	Z8	X9	Y9	Z9	X10	Y10	Z10	X11	Y11	Z11	X12	Y12	Z12	X13	Y13	Z13	X14	Y14	Z14	X15	Y15	Z15	X16	Y16	Z16	X17	Y17	Z17	X18	Y18	Z18	X19	Y19	Z19	X20	Y20	Z20	X21	Y21	Z21	X22	Y22	Z22	X23	Y23	Z23	X24	Y24	Z24	X25	Y25	Z25	X26	Y26	Z26	X27	Y27	Z27	X28	Y28	Z28	X29	Y29	Z29	X30	Y30	Z30	X31	Y31	Z31	X32	Y32	Z32	X33	Y33	Z33	X34	Y34	Z34	X35	Y35	Z35	

42	20.37	-3463.544520450242	1455.10271297872	2511.969706434024	-3555.057445597331	1398.720049767985	2687.382373819311	-3611.681983023655	1177.941107376342	2511.985873604854	-3429.168122546964	946.6381165530493	2660.032299139981	-3447.357625618736	921.7403863879885	2374.095083933703	-3248.982781841154	977.5236714809397	2572.854653570178	-3251.001935841106	969.6921038093786	2435.495042577145	-3350.986108761826	865.2647611443093	2721.591720906316	-3365.877257053201	852.1368484429602	2297.89801104053	-3506.496325867615	687.9914758661197	2754.527161863449	-3594.862509049381	669.5833230612587	2667.71320902014	-3436.169382923963	541.6090114284297	2674.908376386224	-3583.209183621395	505.8122578302338	2754.299010875979	-3594.799954936389	490.7247607421035	2622.560863286408	-3472.831442665695	421.5414286789331	2746.918994538381	-3601.639480697108	353.3807331786034	2702.868560626833	-3527.85256529623	288.3630229076538	2762.941279414184	-3438.860314104443	106.6606056471184	2740.666296412069	-3480.436972522392	115.9731554673142	2646.131663508743	-3585.5462979479	78.13858125567772	2686.08431025644	-3535.818945815322	55.33779516813613	2786.896793163181	-3361.20290297987	70.61304411558751	2672.185407316753	-3427.857899320753	555.9645408708553	2336.693014781756	-3501.341406607537	658.3075331128425	2254.732600645652	-3586.912239006891	685.1557994850045	2321.473795030462	-3557.26870227392	506.4719425716061	2256.346177626908	-3586.133955208096	497.6091749698232	2399.997027555034	-3504.223695072368	303.7330410120569	2240.65154686698	-3461.762123416337	409.0781567112904	2274.910747410823	-3596.16612506584	354.0061443374246	2328.912972329825	-3438.75469810729	106.4314112566562	2280.635052821154	-3483.961172765109	116.0610545335236	2376.068356974983	-3602.808427759525	65.99935526652592	2320.171165103548	-3549.464971758861	62.32889125541505	2216.113220473032	-3379.435236627368	69.89866269561337	2361.05409086554	
43	20.375	-3464.895785740044	1450.827501876083	2511.919028857359	-3556.186974701242	1394.257206900864	2687.149386886614	-3611.541129440829	1172.937946450089	2512.08870201587	-3427.111692200046	942.942808057225	2659.987447949813	-3445.496886825322	918.1187288688881	2374.081183280175	-3247.01905718723	974.1263209365676	2572.728385692797	-3249.174789321854	966.4081107839861	2435.379199891672	-3348.776848858548	861.9535325130147	2721.643705377422	-3364.044273590659	849.1810174994408	2297.763152301004	-3505.990161761087	686.2905011276407	2754.873753021527	-3594.831862395856	668.8163269387276	2668.319045334471	-3437.458687775684	539.369435365477	2675.22403137177	-3584.67349692265	504.9451707509826	2754.996384938469	-3596.361597316831	489.9839747520197	2623.136507150783	-3474.315162128617	421.1381699571334	2747.440993922062	-3602.925831223078	352.6103070210393	2703.270995564232	-3528.830672222956	287.8202793046761	2763.195946689194	-3439.015461872016	106.6243005426255	2740.681714641778	-3480.559541253936	115.9361388430687	2646.136298461062	-3585.596050002544	78.09762431128004	2686.110251140145	-3535.825566941301	55.3192144991994	2786.908998470542	-3361.224589948346	70.62837406766785	2672.179719801607	-3428.904992986016	553.7506726337781	2336.172486421983	-3501.274716356293	656.6257312654099	2254.331807864012	-3586.711886655848	684.3895562696271	2320.92895033376	-3558.747985594113	505.5424152094741	2255.686553405943	-3587.568551272136	496.91067959169	2399.42442606338	-3505.338802533136	303.250265819781	2240.303067276048	-3463.239511304749	408.7201679701541	2274.327805161116	-3597.443884445433	353.3101354894659	2328.570415617171	-3438.847104618116	106.4222666949216	2280.611990244527	-3484.058433587217	116.0240045819241	2376.09043412156	-3602.842159630939	65.97709623444884	2320.189400760728	-3549.475594808584	62.3495664225563	2216.129879507964	-3379.440912906672	69.89317737349027	2361.06621107403	
44	20.38	-3466.250664322189	1446.477380888832	2511.862311922983	-3557.326029550849	1389.732107569325	2686.905047149199	-3611.397363207383	1167.869310417768	2512.188365889974	-3425.059827781058	939.1962817439276	2659.941726084665	-3443.635665078875	914.4508259665014	2374.061879300217	-3245.058784168549	970.674062260028	2572.60810575863	-3247.34830539678	963.0676761517522	2435.270085500342	-3346.565957622232	858.6016620958871	2721.70861176027	-3362.20440854713	846.1890475928376	2297.631700362879	-3505.457444038895	684.552146356645	2755.208426505706	-3594.779604853339	668.0333005617239	2668.931457858747	-3438.730129162098	537.1272217583241	2675.513449817734	-3586.109776650962	504.0767139412536	2755.685323819281	-3597.891827344356	489.2431096614829	2623.702598702976	-3475.777668649848	420.7322185522447	2747.960306679915	-3604.18913732077	351.8439820467595	2703.664525572778	-3529.794288486326	287.2800207927083	2763.44610606137	-3439.168342055457	106.5879858284394	2740.701966331674	-3480.675986463288	115.9006969014807	2646.144909120537	-3585.646079129051	78.05870302936819	2686.135741395029	-3535.833046350097	55.29936786904891	2786.919578544345	-3361.246420306357	70.64362684083476	2672.175793224081	-3429.942070172079	551.5302680264357	2335.644112255226	-3501.201136628834	654.9300333284706	2253.944205702094	-3586.491220814751	683.6080247405706	2320.405657656805	-3560.213498710032	504.6087657022387	2255.03557097399	-3588.980330495885	496.210284837854	2398.862289684945	-3506.447677992484	302.7626291898266	2239.959748381296	-3464.705963566628	408.3558213848156	2273.732056807377	-3598.700642293145	352.6166610824285	2328.241307544338	-3438.940964278093	106.4132039681309	2280.587262831844	-3484.153210103829	115.9864888386628	2376.113423710795	-3602.877367234703	65.95346837775695	2320.208849981001	-3549.48744160527	62.37087076982261	2216.147524568303	-3379.44613836211	69.8874196406713	2361.077427145947	
45	20.385	-3467.60889934707	1442.053826067413	2511.799614743742	-3558.474530294981	1385.145846281724	2686.64947641728	-3611.250086287197	1162.736688034616	2512.284051588196	-3423.013388429706	935.4003817226394	2659.895394512451	-3441.775612214841	910.7373823724074	2374.037966922032	-3243.103444415715	967.1701116211983	2572.492485550877	-3245.523919551456	959.6729403131685	2435.166366253133	-3344.353047617868	855.2119971465318	2721.785806014598	-3360.360399168428	843.1630592220999	2297.502160323221	-3504.899575403301	682.7784284505552	2755.529934099713	-3594.704281696968	667.2356725820727	2669.545771213574	-3439.980217014346	534.8837826226749	2675.779402475076	-3587.517754697149	503.2082535962188	2756.364425100182	-3599.388870995308	488.5030323763816	2624.257213609825	-3477.21832034408	420.3239600837786	2748.474782934432	-3605.428831180091	351.082548707862	2704.047953366721	-3530.742956251381	286.7426937465947	2763.690854405948	-3439.318529162237	106.552254424759	2740.726702500288	-3480.786877781209	115.8666794984897	2646.156990015761	-3585.696360560556	78.02158715986526	2686.16049732577	-3535.841350193572	55.27838715705277	2786.928598395949	-3361.268319680108	70.65886212441698	2672.173290036193	-3430.968785251861	549.3048159715488	2335.105132821482	-3501.121968466623	653.2234756279986	2253.569009034332	-3586.249906955857	682.811015103621	2319.906101708694	-3561.664342267684	503.6718697431897	2254.393016168139	-3590.36751228216	495.5079384330465	2398.310186989755	-3507.548906888069	302.2705896748935	2239.621469267033	-3466.160594201702	407.9854951271244	2273.124270962328	-3599.935217694851	351.9264202114656	2327.925296505854	-3439.035966779007	106.4039987863878	2280.560675488752	-3484.245250437262	115.9487164956601	2376.13696241247	-3602.913634738764	65.92861465415896	2320.229404101962	-3549.500372440012	62.39270255637485	2216.16600716143	-3379.450659014813	69.88147240881335	2361.087222174032	
